<svg width="32" height="32" viewBox="0 0 32 32" fill="none" xmlns="http://www.w3.org/2000/svg">
<rect width="32" height="32" rx="5" fill="#080808"/>
<path d="M15.608 10.3636V22H14.5739L7.69886 12.2557H7.60795V22H6.54545V10.3636H7.57386L14.4716 20.1193H14.5625V10.3636H15.608ZM18.7017 22V10.3636H22.4574C23.2831 10.3636 23.9725 10.5133 24.5256 10.8125C25.0824 11.108 25.5009 11.5189 25.7812 12.0455C26.0653 12.5682 26.2074 13.1686 26.2074 13.8466C26.2074 14.5246 26.0653 15.1231 25.7812 15.642C25.5009 16.161 25.0843 16.5663 24.5312 16.858C23.9782 17.1496 23.2926 17.2955 22.4744 17.2955H19.2756V16.3239H22.446C23.0521 16.3239 23.5559 16.2235 23.9574 16.0227C24.3627 15.822 24.6638 15.536 24.8608 15.1648C25.0616 14.7936 25.1619 14.3542 25.1619 13.8466C25.1619 13.339 25.0616 12.8958 24.8608 12.517C24.66 12.1345 24.357 11.839 23.9517 11.6307C23.5502 11.4223 23.0426 11.3182 22.429 11.3182H19.7642V22H18.7017ZM23.8324 16.75L26.696 22H25.4688L22.6335 16.75H23.8324Z" fill="white"/>
</svg>
