<svg width="58" height="78" viewBox="0 0 58 78" fill="none" xmlns="http://www.w3.org/2000/svg">
<rect x="13" y="13" width="32" height="32" fill="#FCFCF7"/>
<path d="M28.9988 0C13.0096 0 0 12.8824 0 28.7168C0 32.847 0.853711 36.7904 2.53614 40.4385C9.78665 56.1491 23.6879 72.7362 27.7767 77.4452C28.083 77.7972 28.5296 78 28.9996 78C29.4696 78 29.9162 77.7972 30.2225 77.4452C34.3097 72.737 48.2109 56.1507 55.4639 40.4385C57.1471 36.7904 58 32.847 58 28.7168C57.9984 12.8824 44.9888 0 28.9988 0ZM28.9988 43.6323C20.693 43.6323 13.9351 36.9405 13.9351 28.716C13.9351 20.4906 20.693 13.7988 28.9988 13.7988C37.3045 13.7988 44.0625 20.4906 44.0625 28.716C44.0633 36.9405 37.3054 43.6323 28.9988 43.6323Z" fill="#505351"/>
</svg>