<svg width="20" height="20" viewBox="0 0 20 20" fill="none" xmlns="http://www.w3.org/2000/svg">
<path d="M0 20L-1.56578e-07 16.4179L3.58209 16.4179L3.58209 20L0 20Z" fill="white"/>
<path d="M3.58203 16.418L3.58203 13.1344L7.16412 13.1344L7.16412 16.418L3.58203 16.418Z" fill="white"/>
<path d="M6.86523 13.1343L6.86523 9.55219L10.4473 9.55219L10.4473 13.1343L6.86523 13.1343Z" fill="white"/>
<path d="M10.4473 9.55225L10.4473 5.97016L14.0294 5.97016L14.0294 9.55225L10.4473 9.55225Z" fill="white"/>
<path fill-rule="evenodd" clip-rule="evenodd" d="M17.3913 2.6087L-7.60198e-07 2.6087L-8.74228e-07 3.39746e-06L20 2.52324e-06L20 20L17.3913 20L17.3913 2.6087Z" fill="white"/>
</svg>
