<svg width="193" height="133" viewBox="0 0 193 133" fill="none" xmlns="http://www.w3.org/2000/svg">
<path d="M34.7286 28.8635C27.8968 23.1417 13.0944 13.9869 2.84661 8.26511C2.84661 13.4147 3.41593 23.1417 10.8171 36.3018C16.7381 46.8299 35.2979 58.9983 43.8378 63.7664H9.67847L1.13864 68.916L0 131.856H13.6637L13.1069 80.372C13.1 79.7352 13.6118 79.2152 14.2455 79.2152H22.2035C22.2035 91.231 26.7581 99.8137 36.4366 99.8137C44.1793 99.8137 47.6332 94.8548 48.3923 92.3753V131.856H88.8142V119.84H59.7788V110.685C77.997 113.431 81.413 100.386 80.8437 93.5197C83.6903 96.1899 92.9133 101.53 107.032 101.53C121.152 101.53 132.652 96.1899 136.637 93.5197L162.257 133H187.307V123.273H174.782L154.286 93.5197H174.782C176.039 93.5197 177.059 94.5444 177.059 95.8084V118.696H189.015V90.0866C189.015 83.7665 183.917 78.6431 177.628 78.6431H153.147C155.425 63.1942 153.301 58.317 148.024 56.3281C144.608 55.0407 141.192 55.7559 139.484 56.3281L136.068 33.441L145.746 32.2966L180.443 51.4508C183.865 53.3402 188.105 52.8271 190.983 50.1753L193 48.3176L175.92 19.1365C176.3 18.9458 176.945 17.9921 176.49 15.7034C176.034 13.4147 173.643 13.224 172.504 13.4147L168.408 0.67195C168.082 -0.341635 166.635 -0.150227 166.532 0.85556C166.525 0.93105 166.518 1.00716 166.501 1.08109L165.103 7.12075H155.425L150.621 1.08551C149.948 0.240821 148.593 0.718653 148.593 1.80039V7.12075H121.265C116.864 7.12075 113.295 10.7072 113.295 15.1313V59.719C113.295 62.2634 111.23 64.3195 108.699 64.2962L51.2389 63.7664C51.0492 62.8128 49.9864 58.7312 47.2537 50.0341C43.8378 39.1627 38.4398 31.9717 34.7286 28.8635Z" fill="white"/>
</svg>
